<?xml version="1.0" encoding="UTF-8"?> <!-- Generator: Adobe Illustrator 24.1.0, SVG Export Plug-In . SVG Version: 6.00 Build 0) --> <svg xmlns="http://www.w3.org/2000/svg" xmlns:xlink="http://www.w3.org/1999/xlink" version="1.1" id="Layer_1" x="0px" y="0px" viewBox="0 0 485 154" style="enable-background:new 0 0 485 154;" xml:space="preserve"> <style type="text/css"> .st0{fill:#EE7B00;} </style> <path class="st0" d="M11.9,129.6c-2,0-3.6-0.5-4.5-0.9c-2.2-1-7.3-4.3-7.3-13.8V15C0,10.8,1,3.5,7.4,1.5C13.8-0.4,18.7,5.1,21,8.6 L37.3,33c0.9,1.4,2.2,2.3,3.7,2.5c1.4,0.2,2.9-0.3,4.2-1.5L77.4,4.9c4.5-4.1,10.1-5.7,15.5-4.6c5.3,1.1,9.8,5,12.2,10.5l6.5,14.7 l22.9-20.6c7.1-6.4,13-4.8,15.2-3.8c2.2,1,7.3,4.3,7.3,13.8v99.9c0,7.7-2.5,12.2-7.4,13.2c-4.9,1-9-2-12.1-9.1l-31-69.7l-84,75.6 C18.4,128.6,14.7,129.6,11.9,129.6 M14.3,24.3v88.9l86.2-77.6L92,16.6c-0.6-1.3-1.4-2.2-2.2-2.3c-0.8-0.2-1.9,0.3-2.9,1.2L54.6,44.6 c-4.3,3.9-10,5.7-15.5,5c-5.5-0.7-10.5-3.9-13.8-8.7L14.3,24.3z M117.7,39.2l25,56.3V16.7L117.7,39.2z"></path> <path class="st0" d="M228.7,22.1v14.1h-4.4V22.6c0-4.8-2.3-7.2-6.3-7.2c-4.4,0-7.3,2.8-7.3,8.1v12.6h-4.4V22.6 c0-4.8-2.3-7.2-6.3-7.2c-4.4,0-7.3,2.8-7.3,8.1v12.6H188V11.7h4.3v3.6c1.8-2.5,4.8-3.9,8.5-3.9c3.7,0,6.9,1.5,8.5,4.5 c1.8-2.8,5.3-4.5,9.4-4.5C224.6,11.5,228.7,14.9,228.7,22.1"></path> <path class="st0" d="M259.2,11.7v24.5H255v-3.7c-1.8,2.5-4.9,4-8.3,4c-6.3,0-10.5-3.5-10.5-10.7V11.7h4.4v13.6 c0,4.8,2.4,7.2,6.6,7.2c4.6,0,7.6-2.9,7.6-8.1V11.7H259.2z"></path> <path class="st0" d="M290.5,22.1v14.1H286V22.6c0-4.8-2.4-7.2-6.6-7.2c-4.7,0-7.8,2.8-7.8,8.1v12.6h-4.4V11.7h4.3v3.7 c1.8-2.5,4.9-3.9,8.8-3.9C286.3,11.5,290.5,14.9,290.5,22.1"></path> <path class="st0" d="M321.5,1.9v34.3h-4.3v-3.9c-2,2.8-5.1,4.2-8.7,4.2c-7.2,0-12.4-5-12.4-12.5c0-7.5,5.2-12.5,12.4-12.5 c3.5,0,6.5,1.3,8.5,3.9V1.9H321.5z M317.1,24c0-5.2-3.6-8.6-8.2-8.6c-4.7,0-8.3,3.4-8.3,8.6c0,5.2,3.6,8.6,8.3,8.6 C313.5,32.6,317.1,29.2,317.1,24"></path> <path class="st0" d="M327.2,24c0-7.3,5.4-12.5,12.8-12.5s12.7,5.2,12.7,12.5c0,7.3-5.4,12.5-12.7,12.5S327.2,31.3,327.2,24 M348.1,24c0-5.2-3.5-8.6-8.2-8.6c-4.7,0-8.3,3.4-8.3,8.6c0,5.2,3.6,8.6,8.3,8.6C344.6,32.6,348.1,29.2,348.1,24"></path> <path class="st0" d="M251.4,87.2v40.9h-19.5v-8.9c-3.9,6.5-11.3,10-21.9,10c-16.8,0-26.8-9.3-26.8-21.7c0-12.7,8.9-21.5,30.8-21.5 h16.5c0-8.9-5.3-14.1-16.5-14.1c-7.6,0-15.5,2.5-20.7,6.7L185.9,64c7.9-5.6,19.5-8.7,30.9-8.7C238.7,55.4,251.4,65.5,251.4,87.2 M230.6,105.5v-7.3h-14.3c-9.7,0-12.8,3.6-12.8,8.4c0,5.2,4.4,8.7,11.7,8.7C222.2,115.2,228.2,112,230.6,105.5"></path> <path class="st0" d="M344.3,92.3c0,22.5-15.6,37-35.8,37c-8.9,0-16.3-2.8-21.6-8.7v33.5h-20.8V56.4h19.9v8.3 c5.2-6.3,12.9-9.3,22.5-9.3C328.7,55.4,344.3,69.8,344.3,92.3 M323.3,92.3c0-12.4-7.9-19.9-18.3-19.9c-10.4,0-18.3,7.5-18.3,19.9 s7.9,19.9,18.3,19.9C315.4,112.2,323.3,104.7,323.3,92.3"></path> <path class="st0" d="M403.2,124.7c-4.3,3.1-10.5,4.5-16.9,4.5c-16.9,0-26.8-8.7-26.8-25.7V74h-11.1V58h11.1V40.6h20.8V58h17.9v16 h-17.9v29.2c0,6.1,3.3,9.5,8.9,9.5c3.1,0,6.1-0.9,8.4-2.7L403.2,124.7z"></path> <path class="st0" d="M406,92.3c0-21.6,16.7-37,39.5-37c22.8,0,39.4,15.3,39.4,37c0,21.6-16.5,37-39.4,37 C422.6,129.3,406,113.9,406,92.3 M463.7,92.3c0-12.4-7.9-19.9-18.3-19.9c-10.4,0-18.4,7.5-18.4,19.9s8,19.9,18.4,19.9 C455.9,112.2,463.7,104.7,463.7,92.3"></path> </svg> 